# xmcd
#
# Track frame offsets: 
#        150
#        20513
#        39662
#        63220
#        84061
#        99104
#        125580
#
# Disc length: 1921 seconds
#
# Revision: 0
# Processed by: cddbd v1.5.2PL0 Copyright (c) Steve Scherf et al.
# Submitted via: ExactAudioCopy v1.0b3
#
DISCID=48077f07
DTITLE=Jewel Stone Prophets - Hookers Pt Rd
DYEAR=2013
DGENRE=Blues-Rock
TTITLE0=Drivin from the Backseat
TTITLE1=River Bottom Mud
TTITLE2=Pockets Burnin
TTITLE3=Takin It Out
TTITLE4=Just Come Home
TTITLE5=Stitches
TTITLE6=Sugarcane
EXTD=
EXTT0=
EXTT1=
EXTT2=
EXTT3=
EXTT4=
EXTT5=
EXTT6=
PLAYORDER=
